<svg height="1278" width="720" xmlns="http://www.w3.org/2000/svg">
<rect height="1278" fill="#555" width="720"></rect>
<text fill="#7f7" font-family="Courier New" font-size="12" xml:space="preserve">
<tspan x="10" y="26">└─┬ gulp-cdnizer@1.1.7 </tspan>
<tspan x="10" y="42">  ├─┬ cdnizer@1.1.6 </tspan>
<tspan x="10" y="58">  │ ├─┬ cdnjs-cdn-data@0.1.2 </tspan>
<tspan x="10" y="74">  │ │ └── semver@5.0.3 </tspan>
<tspan x="10" y="90">  │ ├── google-cdn-data@0.1.25 </tspan>
<tspan x="10" y="106">  │ ├─┬ jsdelivr-cdn-data@0.1.1 </tspan>
<tspan x="10" y="122">  │ │ └── semver@2.2.1 </tspan>
<tspan x="10" y="138">  │ ├── lodash@2.4.2 </tspan>
<tspan x="10" y="154">  │ ├─┬ minimatch@3.0.3 </tspan>
<tspan x="10" y="170">  │ │ └─┬ brace-expansion@1.1.6 </tspan>
<tspan x="10" y="186">  │ │   ├── balanced-match@0.4.2 </tspan>
<tspan x="10" y="202">  │ │   └── concat-map@0.0.1 </tspan>
<tspan x="10" y="218">  │ └─┬ nomnom@1.8.1 </tspan>
<tspan x="10" y="234">  │   ├─┬ chalk@0.4.0 </tspan>
<tspan x="10" y="250">  │   │ ├── ansi-styles@1.0.0 </tspan>
<tspan x="10" y="266">  │   │ ├── has-color@0.1.7 </tspan>
<tspan x="10" y="282">  │   │ └── strip-ansi@0.1.1 </tspan>
<tspan x="10" y="298">  │   └── underscore@1.6.0 </tspan>
<tspan x="10" y="314">  ├─┬ gulp-util@3.0.8 </tspan>
<tspan x="10" y="330">  │ ├── array-differ@1.0.0 </tspan>
<tspan x="10" y="346">  │ ├── array-uniq@1.0.3 </tspan>
<tspan x="10" y="362">  │ ├── beeper@1.1.1 </tspan>
<tspan x="10" y="378">  │ ├─┬ chalk@1.1.3 </tspan>
<tspan x="10" y="394">  │ │ ├── ansi-styles@2.2.1 </tspan>
<tspan x="10" y="410">  │ │ ├── escape-string-regexp@1.0.5 </tspan>
<tspan x="10" y="426">  │ │ ├── has-ansi@2.0.0 </tspan>
<tspan x="10" y="442">  │ │ ├─┬ strip-ansi@3.0.1 </tspan>
<tspan x="10" y="458">  │ │ │ └── ansi-regex@2.1.1 </tspan>
<tspan x="10" y="474">  │ │ └── supports-color@2.0.0 </tspan>
<tspan x="10" y="490">  │ ├── dateformat@2.0.0 </tspan>
<tspan x="10" y="506">  │ ├─┬ fancy-log@1.3.0 </tspan>
<tspan x="10" y="522">  │ │ ├─┬ chalk@1.1.3 </tspan>
<tspan x="10" y="538">  │ │ │ ├── ansi-styles@2.2.1 </tspan>
<tspan x="10" y="554">  │ │ │ └── strip-ansi@3.0.1 </tspan>
<tspan x="10" y="570">  │ │ └── time-stamp@1.0.1 </tspan>
<tspan x="10" y="586">  │ ├─┬ gulplog@1.0.0 </tspan>
<tspan x="10" y="602">  │ │ └── glogg@1.0.0 </tspan>
<tspan x="10" y="618">  │ ├─┬ has-gulplog@0.1.0 </tspan>
<tspan x="10" y="634">  │ │ └── sparkles@1.0.0 </tspan>
<tspan x="10" y="650">  │ ├── lodash._reescape@3.0.0 </tspan>
<tspan x="10" y="666">  │ ├── lodash._reevaluate@3.0.0 </tspan>
<tspan x="10" y="682">  │ ├── lodash._reinterpolate@3.0.0 </tspan>
<tspan x="10" y="698">  │ ├─┬ lodash.template@3.6.2 </tspan>
<tspan x="10" y="714">  │ │ ├── lodash._basecopy@3.0.1 </tspan>
<tspan x="10" y="730">  │ │ ├── lodash._basetostring@3.0.1 </tspan>
<tspan x="10" y="746">  │ │ ├── lodash._basevalues@3.0.0 </tspan>
<tspan x="10" y="762">  │ │ ├── lodash._isiterateecall@3.0.9 </tspan>
<tspan x="10" y="778">  │ │ ├─┬ lodash.escape@3.2.0 </tspan>
<tspan x="10" y="794">  │ │ │ └── lodash._root@3.0.1 </tspan>
<tspan x="10" y="810">  │ │ ├─┬ lodash.keys@3.1.2 </tspan>
<tspan x="10" y="826">  │ │ │ ├── lodash._getnative@3.9.1 </tspan>
<tspan x="10" y="842">  │ │ │ ├── lodash.isarguments@3.1.0 </tspan>
<tspan x="10" y="858">  │ │ │ └── lodash.isarray@3.0.4 </tspan>
<tspan x="10" y="874">  │ │ ├── lodash.restparam@3.6.1 </tspan>
<tspan x="10" y="890">  │ │ └── lodash.templatesettings@3.1.1 </tspan>
<tspan x="10" y="906">  │ ├── minimist@1.2.0 </tspan>
<tspan x="10" y="922">  │ ├─┬ multipipe@0.1.2 </tspan>
<tspan x="10" y="938">  │ │ └─┬ duplexer2@0.0.2 </tspan>
<tspan x="10" y="954">  │ │   └── readable-stream@1.1.14 </tspan>
<tspan x="10" y="970">  │ ├── object-assign@3.0.0 </tspan>
<tspan x="10" y="986">  │ ├── replace-ext@0.0.1 </tspan>
<tspan x="10" y="1002">  │ ├─┬ through2@2.0.3 </tspan>
<tspan x="10" y="1018">  │ │ ├─┬ readable-stream@2.2.6 </tspan>
<tspan x="10" y="1034">  │ │ │ ├── buffer-shims@1.0.0 </tspan>
<tspan x="10" y="1050">  │ │ │ ├── isarray@1.0.0 </tspan>
<tspan x="10" y="1066">  │ │ │ ├── process-nextick-args@1.0.7 </tspan>
<tspan x="10" y="1082">  │ │ │ └── util-deprecate@1.0.2 </tspan>
<tspan x="10" y="1098">  │ │ └── xtend@4.0.1 </tspan>
<tspan x="10" y="1114">  │ └─┬ vinyl@0.5.3 </tspan>
<tspan x="10" y="1130">  │   ├── clone@1.0.2 </tspan>
<tspan x="10" y="1146">  │   └── clone-stats@0.0.1 </tspan>
<tspan x="10" y="1162">  └─┬ through2@0.5.1 </tspan>
<tspan x="10" y="1178">    ├─┬ readable-stream@1.0.34 </tspan>
<tspan x="10" y="1194">    │ ├── core-util-is@1.0.2 </tspan>
<tspan x="10" y="1210">    │ ├── inherits@2.0.3 </tspan>
<tspan x="10" y="1226">    │ ├── isarray@0.0.1 </tspan>
<tspan x="10" y="1242">    │ └── string_decoder@0.10.31 </tspan>
<tspan x="10" y="1258">    └── xtend@3.0.0</tspan>
</text>
</svg>
